<svg id="Layer_1" data-name="Layer 1" xmlns="http://www.w3.org/2000/svg" viewBox="0 0 653.97 360.32"><defs><style>.cls-1,.cls-2{fill:#00dbff;}.cls-2,.cls-3,.cls-4,.cls-5{stroke:#00dbff;stroke-miterlimit:10;}.cls-3,.cls-4,.cls-5{fill:none;stroke-width:2px;}.cls-4{stroke-dasharray:7.27 7.27 7.27 7.27;}.cls-5{stroke-dasharray:7.27 7.27 7.27 7.27 7.27 7.27;}</style></defs><path class="cls-1" d="M197,289.08h-65.2a32.59,32.59,0,0,0-32.6,32.58v81.43h32.6V321.66H197Z" transform="translate(-98.21 -174.3)"/><path class="cls-1" d="M506.69,289.08H474.1v81.44H408.9v32.57h65.2a32.59,32.59,0,0,0,32.59-32.57V321.66h65.17V289.08Z" transform="translate(-98.21 -174.3)"/><path class="cls-1" d="M360,403.09V370.52h-81.5V305.37h-32.6v65.15a32.59,32.59,0,0,0,32.6,32.57h48.9V533.42H360Z" transform="translate(-98.21 -174.3)"/><path class="cls-1" d="M620.79,305.37a32.59,32.59,0,0,0,9.54,23,32.64,32.64,0,0,0,23,9.54h48.9V403.1h32.6V305.37h-81.5V175H620.79Z" transform="translate(-98.21 -174.3)"/><path class="cls-2" d="M751.18,240.22h-32.6V272.8h32.6Z" transform="translate(-98.21 -174.3)"/><path class="cls-3" d="M99.21,289.32h652" transform="translate(-98.21 -174.3)"/><path class="cls-3" d="M99.21,273h652" transform="translate(-98.21 -174.3)"/><path class="cls-3" d="M99.21,338.18h652" transform="translate(-98.21 -174.3)"/><path class="cls-3" d="M99.21,305.6h3" transform="translate(-98.21 -174.3)"/><path class="cls-4" d="M108.25,305.6h21.13" transform="translate(-98.21 -174.3)"/><path class="cls-5" d="M132.39,305.6H745.16" transform="translate(-98.21 -174.3)"/><path class="cls-3" d="M748.18,305.6h3" transform="translate(-98.21 -174.3)"/><path class="cls-3" d="M99.21,321.89h3" transform="translate(-98.21 -174.3)"/><path class="cls-4" d="M108.25,321.89h21.13" transform="translate(-98.21 -174.3)"/><path class="cls-5" d="M132.39,321.89H745.16" transform="translate(-98.21 -174.3)"/><path class="cls-3" d="M748.18,321.89h3" transform="translate(-98.21 -174.3)"/><path class="cls-3" d="M751.18,175.3h-652V533.61h652Z" transform="translate(-98.21 -174.3)"/><path class="cls-3" d="M718.58,175.3V533.62" transform="translate(-98.21 -174.3)"/><path class="cls-3" d="M751.18,273h-16.3v16.29h16.3Z" transform="translate(-98.21 -174.3)"/><path class="cls-3" d="M734.88,289.32h-16.3V305.6h16.3Z" transform="translate(-98.21 -174.3)"/><path class="cls-3" d="M620.79,175.3h-48.9V533.61h48.9Z" transform="translate(-98.21 -174.3)"/><path class="cls-3" d="M408.9,175.3H360V533.61h48.9Z" transform="translate(-98.21 -174.3)"/><path class="cls-3" d="M245.91,175.3H197V533.61h48.9Z" transform="translate(-98.21 -174.3)"/><path class="cls-3" d="M99.21,403.32h652" transform="translate(-98.21 -174.3)"/><path class="cls-3" d="M473.94,403.09a32.58,32.58,0,1,0-32.6-32.57A32.58,32.58,0,0,0,473.94,403.09Z" transform="translate(-98.21 -174.3)"/><path class="cls-3" d="M278.5,403.09a32.58,32.58,0,1,0-32.6-32.57A32.58,32.58,0,0,0,278.5,403.09Z" transform="translate(-98.21 -174.3)"/><path class="cls-3" d="M131.81,354.46a32.57,32.57,0,1,0-32.6-32.57A32.59,32.59,0,0,0,131.81,354.46Z" transform="translate(-98.21 -174.3)"/><path class="cls-3" d="M653.38,338.18a32.58,32.58,0,1,0-32.59-32.58A32.6,32.6,0,0,0,653.38,338.18Z" transform="translate(-98.21 -174.3)"/></svg>